<svg width="515" height="487" viewBox="0 0 515 487" fill="none" xmlns="http://www.w3.org/2000/svg">
<g opacity="0.05">
<path d="M88.5133 302.396C88.5133 281.731 91.9574 265.2 97.468 246.602L3.09969 414.674C-1.03323 422.251 -1.03323 435.338 3.09969 443.604L27.8972 479.423C32.7189 487 43.0512 487 52.0059 487H257.963C162.217 486.311 88.5133 400.897 88.5133 302.396Z" fill="white"/>
<path d="M280.692 117.099C339.93 117.099 392.281 143.963 427.41 185.292L329.598 14.4652C325.465 6.8882 314.444 0.68882 305.489 0.68882L257.272 0C248.317 0 237.296 6.19938 233.163 13.7764L136.729 181.848C172.547 141.897 223.52 117.099 280.692 117.099Z" fill="white"/>
<path d="M560.352 416.052L461.851 244.536C468.739 264.512 472.872 279.666 472.872 302.397C472.872 400.898 399.168 486.312 304.111 486.312H511.446C520.401 486.312 531.422 487.001 535.555 479.424L560.352 440.85C565.174 433.273 565.174 424.318 560.352 416.052Z" fill="white"/>
</g>
</svg>
