<svg width="226" height="39" viewBox="0 0 226 39" fill="none" xmlns="http://www.w3.org/2000/svg">
<mask id="mask0_1_1124" style="mask-type:luminance" maskUnits="userSpaceOnUse" x="0" y="0" width="226" height="39">
<path d="M226 0H0V38.5308H226V0Z" fill="white"/>
</mask>
<g mask="url(#mask0_1_1124)">
<path d="M7.04038 23.9592C7.04038 22.322 7.31326 21.0121 7.74987 19.5386L0.272937 32.8552C-0.0545205 33.4555 -0.0545205 34.4925 0.272937 35.1474L2.23768 37.9853C2.61971 38.5857 3.43836 38.5857 4.14785 38.5857H20.4661C12.88 38.5311 7.04038 31.7636 7.04038 23.9592Z" fill="white"/>
</g>
<mask id="mask1_1_1124" style="mask-type:luminance" maskUnits="userSpaceOnUse" x="0" y="0" width="226" height="39">
<path d="M226 0H0V38.5308H226V0Z" fill="white"/>
</mask>
<g mask="url(#mask1_1_1124)">
<path d="M22.2678 9.27795C26.9613 9.27795 31.1091 11.4064 33.8925 14.681L26.1427 1.1461C25.8152 0.545762 24.942 0.0545762 24.2325 0.0545762L20.4122 0C19.7027 0 18.8295 0.491186 18.502 1.09152L10.8613 14.4081C13.6993 11.2427 17.7379 9.27795 22.2678 9.27795Z" fill="white"/>
</g>
<mask id="mask2_1_1124" style="mask-type:luminance" maskUnits="userSpaceOnUse" x="0" y="0" width="226" height="39">
<path d="M226 0H0V38.5308H226V0Z" fill="white"/>
</mask>
<g mask="url(#mask2_1_1124)">
<path d="M44.4254 32.9645L36.621 19.375C37.1668 20.9577 37.4942 22.1584 37.4942 23.9594C37.4942 31.7638 31.6546 38.5312 24.123 38.5312H40.5505C41.26 38.5312 42.1332 38.5858 42.4606 37.9855L44.4254 34.9292C44.8074 34.3289 44.8074 33.6194 44.4254 32.9645Z" fill="white"/>
</g>
<mask id="mask3_1_1124" style="mask-type:luminance" maskUnits="userSpaceOnUse" x="0" y="0" width="226" height="39">
<path d="M226 0H0V38.5308H226V0Z" fill="white"/>
</mask>
<g mask="url(#mask3_1_1124)">
<path d="M224.363 15.2821C223.271 13.1536 221.688 11.5163 219.778 10.3157C217.813 9.11499 215.576 8.51465 213.065 8.51465C210.555 8.51465 208.317 9.11499 206.352 10.3157C204.388 11.5163 202.86 13.1536 201.713 15.2821C200.622 17.356 200.076 19.8119 200.076 22.4316C200.076 25.0512 200.622 27.4526 201.713 29.5811C202.805 31.7095 204.388 33.3468 206.298 34.5475C208.263 35.7482 210.5 36.3485 213.011 36.3485C215.521 36.3485 217.759 35.7482 219.724 34.5475C221.688 33.3468 223.216 31.655 224.308 29.5811C225.4 27.5072 225.945 25.1058 225.945 22.4316C226 19.8119 225.454 17.356 224.363 15.2821ZM221.525 28.1075C220.706 29.7448 219.56 31.0546 218.086 31.9278C216.613 32.8556 214.921 33.2922 213.011 33.2922C211.101 33.2922 209.409 32.8556 207.935 31.9278C206.462 31 205.315 29.7448 204.497 28.1075C203.678 26.4702 203.242 24.56 203.242 22.4316C203.242 20.3031 203.678 18.4475 204.497 16.7557C205.315 15.1184 206.462 13.8085 207.935 12.9353C209.409 12.0075 211.101 11.5709 213.011 11.5709C214.921 11.5709 216.613 12.0075 218.086 12.9353C219.56 13.8631 220.706 15.1184 221.525 16.7557C222.343 18.3929 222.78 20.3031 222.78 22.4316C222.78 24.56 222.398 26.4702 221.525 28.1075Z" fill="white"/>
</g>
<mask id="mask4_1_1124" style="mask-type:luminance" maskUnits="userSpaceOnUse" x="0" y="0" width="226" height="39">
<path d="M226 0H0V38.5308H226V0Z" fill="white"/>
</mask>
<g mask="url(#mask4_1_1124)">
<path d="M153.304 9.33312C152.976 9.606 152.867 9.98804 152.867 10.4792V34.4382C152.867 34.8748 153.031 35.2568 153.304 35.5843C153.577 35.8571 153.959 36.0209 154.45 36.0209C154.887 36.0209 155.269 35.8571 155.541 35.5843C155.814 35.3114 155.978 34.9294 156.033 34.4927V10.4792C156.033 10.0426 155.869 9.66058 155.596 9.3877C154.941 8.73278 153.904 8.78736 153.304 9.33312Z" fill="white"/>
</g>
<mask id="mask5_1_1124" style="mask-type:luminance" maskUnits="userSpaceOnUse" x="0" y="0" width="226" height="39">
<path d="M226 0H0V38.5308H226V0Z" fill="white"/>
</mask>
<g mask="url(#mask5_1_1124)">
<path d="M77.6065 9.76997C77.4974 9.49709 77.2791 9.22421 77.0608 9.06048C76.7879 8.89675 76.515 8.7876 76.1876 8.7876C75.4781 8.7876 74.9323 9.11505 74.714 9.76997L64.7811 34.0564C64.7266 34.1655 64.7266 34.3293 64.7266 34.493V34.6567C64.7811 35.0387 64.8903 35.3662 65.1632 35.6391C65.4361 35.912 65.7635 36.0211 66.2547 36.0211C66.6913 36.0211 67.2916 35.912 67.6191 35.0387L70.2933 28.4896H77.2791C78.0977 28.4896 78.7526 27.8347 78.7526 27.016C78.7526 26.1974 78.0977 25.5425 77.2791 25.5425H71.494L76.0784 14.1906L84.5923 35.0933C84.7014 35.3662 84.9198 35.5845 85.1381 35.7482C85.4109 35.912 85.6838 36.0211 86.0113 36.0211C86.3933 36.0211 86.7753 35.8574 87.0482 35.6391C87.3757 35.3662 87.5394 34.9842 87.5394 34.5476C87.5394 34.4384 87.5394 34.2201 87.4303 33.9472L77.6065 9.76997Z" fill="white"/>
</g>
<mask id="mask6_1_1124" style="mask-type:luminance" maskUnits="userSpaceOnUse" x="0" y="0" width="226" height="39">
<path d="M226 0H0V38.5308H226V0Z" fill="white"/>
</mask>
<g mask="url(#mask6_1_1124)">
<path d="M188.016 34.4379C188.016 34.8745 188.179 35.2566 188.452 35.5294C188.78 35.8023 189.162 35.966 189.598 35.966C190.035 35.966 190.417 35.8023 190.69 35.5294C191.017 35.2566 191.181 34.8745 191.181 34.4379V15.0088L188.016 19.8115V34.4379Z" fill="white"/>
</g>
<mask id="mask7_1_1124" style="mask-type:luminance" maskUnits="userSpaceOnUse" x="0" y="0" width="226" height="39">
<path d="M226 0H0V38.5308H226V0Z" fill="white"/>
</mask>
<g mask="url(#mask7_1_1124)">
<path d="M189.652 8.8418C189.27 8.8418 188.942 9.00552 188.67 9.22383C188.67 9.22383 188.615 9.22383 188.615 9.27841L188.56 9.33298C188.506 9.38756 188.397 9.49671 188.342 9.60586L178.791 23.8502L169.295 9.60586C169.131 9.38756 168.968 9.22383 168.695 9.11468C167.985 8.78722 167.33 8.95095 166.894 9.38756C166.621 9.66044 166.457 10.0425 166.457 10.4245V34.438C166.457 34.8746 166.566 35.2567 166.839 35.5296C167.385 36.1299 168.422 36.1299 169.022 35.5296C169.295 35.2567 169.459 34.8746 169.459 34.438V15.0635L177.591 27.3977C177.918 27.7797 178.3 27.998 178.737 27.998H178.846C179.119 27.998 179.555 27.8889 179.992 27.3431C179.992 27.3431 190.907 11.3523 191.071 11.0794C191.235 10.8611 191.289 10.5882 191.289 10.3154C191.18 9.55129 190.525 8.8418 189.652 8.8418Z" fill="white"/>
</g>
<mask id="mask8_1_1124" style="mask-type:luminance" maskUnits="userSpaceOnUse" x="0" y="0" width="226" height="39">
<path d="M226 0H0V38.5308H226V0Z" fill="white"/>
</mask>
<g mask="url(#mask8_1_1124)">
<path d="M144.79 9.38752C144.517 9.11463 144.135 9.06006 143.699 9.06006H125.852C125.416 9.06006 125.034 9.11463 124.761 9.38752C124.488 9.6604 124.324 9.98785 124.324 10.3699C124.324 10.8065 124.488 11.4068 124.761 11.6797C125.034 11.9526 125.416 12.3346 125.852 12.3346H143.699C144.135 12.3346 144.463 11.9526 144.79 11.7343C145.063 11.4614 145.227 11.0248 145.227 10.5882C145.227 10.097 145.063 9.6604 144.79 9.38752Z" fill="white"/>
</g>
<mask id="mask9_1_1124" style="mask-type:luminance" maskUnits="userSpaceOnUse" x="0" y="0" width="226" height="39">
<path d="M226 0H0V38.5308H226V0Z" fill="white"/>
</mask>
<g mask="url(#mask9_1_1124)">
<path d="M116.521 30.2901V10.3698C116.521 9.98778 116.302 9.60574 116.029 9.33286C115.538 8.7871 114.338 8.73252 113.792 9.33286C113.519 9.60574 113.246 9.9332 113.246 10.3698V25.924L116.521 30.2901Z" fill="white"/>
</g>
<mask id="mask10_1_1124" style="mask-type:luminance" maskUnits="userSpaceOnUse" x="0" y="0" width="226" height="39">
<path d="M226 0H0V38.5308H226V0Z" fill="white"/>
</mask>
<g mask="url(#mask10_1_1124)">
<path d="M134.639 14.5723C133.711 14.5723 133.002 15.2818 133.002 16.2096V34.438C133.002 34.8746 133.166 35.2566 133.439 35.5295C133.711 35.8024 134.093 35.9661 134.585 35.9661C135.021 35.9661 135.458 35.8024 135.731 35.5295C136.058 35.2566 136.277 34.8746 136.277 34.438V16.2096C136.277 15.3363 135.567 14.5723 134.639 14.5723Z" fill="white"/>
</g>
<mask id="mask11_1_1124" style="mask-type:luminance" maskUnits="userSpaceOnUse" x="0" y="0" width="226" height="39">
<path d="M226 0H0V38.5308H226V0Z" fill="white"/>
</mask>
<g mask="url(#mask11_1_1124)">
<path d="M116.139 33.2916L106.042 20.1387L97.9101 9.49633C97.6918 9.22345 97.4189 8.896 96.7094 8.896C96.3274 8.896 95.8908 9.05973 95.5633 9.33261C95.2905 9.60549 95.0176 9.98752 95.0176 10.4241V34.5468C95.0176 34.9288 95.2905 35.2563 95.5633 35.5292C96.1091 36.0749 96.9823 36.0749 97.5827 35.5292C97.8555 35.2563 98.0193 34.9288 98.0193 34.5468V14.7356L113.519 35.4746C113.628 35.5838 113.846 35.7475 114.065 35.8021C114.283 35.9112 114.501 35.9658 114.774 35.9658H114.829H114.883C115.811 35.9658 116.521 35.2563 116.521 34.3285C116.521 33.9465 116.357 33.619 116.139 33.2916Z" fill="white"/>
</g>
</svg>
